<svg width="140" height="15" viewBox="0 0 140 15">
              <defs>
                <filter id="a">
                  <feColorMatrix
                    in="SourceGraphic"
                    values="0 0 0 0 1.000000 0 0 0 0 1.000000 0 0 0 0 1.000000 0 0 0 1.000000 0"
                  ></feColorMatrix>
                </filter>
              </defs>
              <path
                d="M16.816 2.494H0V.004h16.816v2.49zm-.024 6.225H0v-2.49h16.792v2.49zm0 3.735v2.49H0v-2.49h16.792zm18.13-9.94l-5.994.013c-4.011-.008-5.897 1.645-5.897 4.947 0 3.306 1.886 4.96 5.889 4.96h8.406v2.481l-8.394.013c-5.599.008-8.398-2.466-8.398-7.43 0-4.96 2.779-7.445 8.337-7.465h8.455v2.486l-2.404-.005zM49.4.037c5.636 0 8.456 2.477 8.456 7.437 0 4.96-2.795 7.445-8.394 7.454-5.599.008-8.394-2.466-8.394-7.43-.004-4.955 2.77-7.445 8.333-7.461zm5.934 7.437c0-3.302-1.877-4.955-5.876-4.947-4.011-.008-5.864 1.645-5.864 4.947 0 3.306 1.853 4.96 5.856 4.96 4.003.004 5.884-1.65 5.884-4.96zm82.262-7.45l.005 12.401h-4.803V.02h-2.404v12.405h-4.803V0h-2.403v14.936h14.416c1.8 0 2.396-.956 2.396-2.47V.02h-2.404v.004zm-38.66 12.414H86.32a1.794 1.794 0 0 1-1.792-1.792V.012h-2.403v11.295c0 2 1.62 3.62 3.62 3.62h13.192v-2.49zM110.978.037c5.636 0 8.455 2.477 8.455 7.437 0 4.96-2.795 7.445-8.394 7.454-5.598.008-8.394-2.466-8.394-7.43-.004-4.955 2.775-7.445 8.333-7.461zm5.934 7.437c0-3.302-1.878-4.955-5.877-4.947-4.011-.008-5.864 1.645-5.864 4.947 0 3.306 1.853 4.96 5.856 4.96 4.003.004 5.885-1.65 5.885-4.96zM62.135 0h16.517v2.36H62.135zm16.517 8.773H64.495v6.171h-2.36V6.293h16.517z"
                fill="#212121"
                filter="url(#a)"
              ></path>
            </svg>